HIERARCHY
ROOT hip
{
	OFFSET 0.000000 103.560692 0.219151
	CHANNELS 6 Xposition Yposition Zposition Zrotation Xrotation Yrotation
	JOINT pelvis
	{
		OFFSET 0.000000 1.955040 1.591925
		CHANNELS 3 Zrotation Xrotation Yrotation
		JOINT lThigh
		{
			OFFSET 8.341582 -7.629402 -0.646910
			CHANNELS 3 Zrotation Xrotation Yrotation
			JOINT lShin
			{
				OFFSET 2.185763 -45.093132 -0.705710
				CHANNELS 3 Zrotation Xrotation Yrotation
				JOINT lFoot
				{
					OFFSET 0.730976 -46.379768 -2.264282
					CHANNELS 3 Zrotation Xrotation Yrotation
					JOINT lToe
					{
						OFFSET 2.797621 -4.200020 10.742415
						CHANNELS 3 Zrotation Xrotation Yrotation
						JOINT lBigToe
						{
							OFFSET -2.433708 -0.269072 1.841711
							CHANNELS 3 Zrotation Xrotation Yrotation
							End Site
							{
								OFFSET -10.527346 -33.657166 -1.340707
							}
						}
					}
				}
			}
		}
		JOINT rThigh
		{
			OFFSET -8.341582 -7.629402 -0.646910
			CHANNELS 3 Zrotation Xrotation Yrotation
			JOINT rShin
			{
				OFFSET -2.185763 -45.093132 -0.705710
				CHANNELS 3 Zrotation Xrotation Yrotation
				JOINT rFoot
				{
					OFFSET -0.730976 -46.379768 -2.264282
					CHANNELS 3 Zrotation Xrotation Yrotation
					JOINT rToe
					{
						OFFSET -2.797621 -4.200019 10.742415
						CHANNELS 3 Zrotation Xrotation Yrotation
						JOINT rBigToe
						{
							OFFSET 2.433708 -0.269072 1.841711
							CHANNELS 3 Zrotation Xrotation Yrotation
							End Site
							{
								OFFSET 0.000000 24.298409 -0.425647
							}
						}
					}
				}
			}
		}
	}
	JOINT abdomen
	{
		OFFSET 0.000000 1.841293 -3.551421
		CHANNELS 3 Zrotation Xrotation Yrotation
		JOINT abdomen2
		{
			OFFSET 0.000000 5.439911 3.419600
			CHANNELS 3 Zrotation Xrotation Yrotation
			JOINT chest
			{
				OFFSET 0.000000 14.715073 -2.918270
				CHANNELS 3 Zrotation Xrotation Yrotation
				JOINT neck
				{
					OFFSET 0.000000 26.294655 -1.248052
					CHANNELS 3 Zrotation Xrotation Yrotation
					JOINT head
					{
						OFFSET 0.000000 8.807068 1.063695
						CHANNELS 3 Zrotation Xrotation Yrotation
						JOINT rEye
						{
							OFFSET -3.030866 6.632080 7.702687
							CHANNELS 3 Zrotation Xrotation Yrotation
							End Site
							{
								OFFSET 2.969555 -11.022598 8.626689
							}
						}
						JOINT lEye
						{
							OFFSET 3.030866 6.632080 7.702687
							CHANNELS 3 Zrotation Xrotation Yrotation
							End Site
							{
								OFFSET 0.000000 -15.881760 10.104412
							}
						}
						JOINT upperJaw
						{
							OFFSET 0.000000 1.922699 2.891887
							CHANNELS 3 Zrotation Xrotation Yrotation
							End Site
							{
								OFFSET 0.000000 -19.386169 10.230839
							}
						}
						JOINT lowerJaw
						{
							OFFSET 0.000000 1.857620 2.686640
							CHANNELS 3 Zrotation Xrotation Yrotation
							JOINT tongueBase
							{
								OFFSET 0.000000 -3.019135 2.746916
								CHANNELS 3 Zrotation Xrotation Yrotation
								JOINT tongue01
								{
									OFFSET 0.000000 0.664124 0.223355
									CHANNELS 3 Zrotation Xrotation Yrotation
									JOINT tongue02
									{
										OFFSET 0.000000 0.339737 0.715627
										CHANNELS 3 Zrotation Xrotation Yrotation
										JOINT tongue03
										{
											OFFSET 0.000000 0.123444 0.730634
											CHANNELS 3 Zrotation Xrotation Yrotation
											JOINT tongue04
											{
												OFFSET 0.000000 0.017212 0.737415
												CHANNELS 3 Zrotation Xrotation Yrotation
												JOINT tongue05
												{
													OFFSET 0.000000 -0.021011 0.632440
													CHANNELS 3 Zrotation Xrotation Yrotation
													JOINT tongueTip
													{
														OFFSET 0.000000 -0.014404 0.601796
														CHANNELS 3 Zrotation Xrotation Yrotation
														End Site
														{
															OFFSET -14.139406 -2.625778 0.472826
														}
													}
												}
											}
										}
									}
								}
							}
						}
					}
				}
				JOINT rCollar
				{
					OFFSET -2.109295 21.452370 3.768136
					CHANNELS 3 Zrotation Xrotation Yrotation
					JOINT rShldr
					{
						OFFSET -11.491621 -2.568573 -4.940255
						CHANNELS 3 Zrotation Xrotation Yrotation
						JOINT rForeArm
						{
							OFFSET -28.789030 -0.213806 2.098380
							CHANNELS 3 Zrotation Xrotation Yrotation
							JOINT rHand
							{
								OFFSET -22.260895 -0.869583 10.391586
								CHANNELS 3 Zrotation Xrotation Yrotation
								JOINT rThumb1
								{
									OFFSET -0.628075 0.137405 2.362409
									CHANNELS 3 Zrotation Xrotation Yrotation
									JOINT rThumb2
									{
										OFFSET 0.085205 -0.600235 3.826079
										CHANNELS 3 Zrotation Xrotation Yrotation
										JOINT rThumb3
										{
											OFFSET -1.255478 -0.879211 2.439162
											CHANNELS 3 Zrotation Xrotation Yrotation
											End Site
											{
												OFFSET -2.963715 0.538574 4.059553
											}
										}
									}
								}
								JOINT rCarpal1
								{
									OFFSET -0.855530 1.026047 1.621985
									CHANNELS 3 Zrotation Xrotation Yrotation
									JOINT rIndex1
									{
										OFFSET -3.951324 0.390884 3.873290
										CHANNELS 3 Zrotation Xrotation Yrotation
										JOINT rIndex2
										{
											OFFSET -3.071884 -1.259598 2.506104
											CHANNELS 3 Zrotation Xrotation Yrotation
											JOINT rIndex3
											{
												OFFSET -1.394112 -1.446640 1.203302
												CHANNELS 3 Zrotation Xrotation Yrotation
												End Site
												{
													OFFSET -3.392448 -1.258026 0.533405
												}
											}
										}
									}
									JOINT rMid1
									{
										OFFSET -5.422974 0.107910 2.002650
										CHANNELS 3 Zrotation Xrotation Yrotation
										JOINT rMid2
										{
											OFFSET -3.599533 -1.323776 2.090647
											CHANNELS 3 Zrotation Xrotation Yrotation
											JOINT rMid3
											{
												OFFSET -1.360191 -1.598495 1.068055
												CHANNELS 3 Zrotation Xrotation Yrotation
												End Site
												{
													OFFSET -4.087769 -0.460876 0.069540
												}
											}
										}
									}
								}
								JOINT rCarpal2
								{
									OFFSET -1.942749 0.556229 -0.337217
									CHANNELS 3 Zrotation Xrotation Yrotation
									JOINT rRing1
									{
										OFFSET -4.762787 -0.121170 2.349089
										CHANNELS 3 Zrotation Xrotation Yrotation
										JOINT rRing2
										{
											OFFSET -3.380348 -1.337097 1.356700
											CHANNELS 3 Zrotation Xrotation Yrotation
											JOINT rRing3
											{
												OFFSET -1.430290 -1.499649 0.914224
												CHANNELS 3 Zrotation Xrotation Yrotation
												End Site
												{
													OFFSET -1.783272 -2.215851 -0.391895
												}
											}
										}
									}
									JOINT rPinky1
									{
										OFFSET -5.232559 -1.313721 0.336493
										CHANNELS 3 Zrotation Xrotation Yrotation
										JOINT rPinky2
										{
											OFFSET -2.217606 -1.389603 0.800693
											CHANNELS 3 Zrotation Xrotation Yrotation
											JOINT rPinky3
											{
												OFFSET -0.886887 -1.462280 0.774199
												CHANNELS 3 Zrotation Xrotation Yrotation
												End Site
												{
													OFFSET 14.139406 -2.625778 0.472826
												}
											}
										}
									}
								}
							}
						}
					}
				}
				JOINT lCollar
				{
					OFFSET 2.109295 21.452370 3.768136
					CHANNELS 3 Zrotation Xrotation Yrotation
					JOINT lShldr
					{
						OFFSET 11.491621 -2.568573 -4.940255
						CHANNELS 3 Zrotation Xrotation Yrotation
						JOINT lForeArm
						{
							OFFSET 28.789030 -0.213806 2.098380
							CHANNELS 3 Zrotation Xrotation Yrotation
							JOINT lHand
							{
								OFFSET 22.260895 -0.869583 10.391586
								CHANNELS 3 Zrotation Xrotation Yrotation
								JOINT lThumb1
								{
									OFFSET 0.628075 0.137405 2.362409
									CHANNELS 3 Zrotation Xrotation Yrotation
									JOINT lThumb2
									{
										OFFSET -0.085205 -0.600235 3.826079
										CHANNELS 3 Zrotation Xrotation Yrotation
										JOINT lThumb3
										{
											OFFSET 1.255478 -0.879211 2.439162
											CHANNELS 3 Zrotation Xrotation Yrotation
											End Site
											{
												OFFSET 2.963715 0.538574 4.059553
											}
										}
									}
								}
								JOINT lCarpal1
								{
									OFFSET 0.855530 1.026047 1.621985
									CHANNELS 3 Zrotation Xrotation Yrotation
									JOINT lIndex1
									{
										OFFSET 3.951324 0.390884 3.873290
										CHANNELS 3 Zrotation Xrotation Yrotation
										JOINT lIndex2
										{
											OFFSET 3.071884 -1.259598 2.506104
											CHANNELS 3 Zrotation Xrotation Yrotation
											JOINT lIndex3
											{
												OFFSET 1.394112 -1.446640 1.203302
												CHANNELS 3 Zrotation Xrotation Yrotation
												End Site
												{
													OFFSET 3.392448 -1.258026 0.533405
												}
											}
										}
									}
									JOINT lMid1
									{
										OFFSET 5.422974 0.107910 2.002650
										CHANNELS 3 Zrotation Xrotation Yrotation
										JOINT lMid2
										{
											OFFSET 3.599533 -1.323776 2.090647
											CHANNELS 3 Zrotation Xrotation Yrotation
											JOINT lMid3
											{
												OFFSET 1.360191 -1.598495 1.068055
												CHANNELS 3 Zrotation Xrotation Yrotation
												End Site
												{
													OFFSET 4.087769 -0.460876 0.069540
												}
											}
										}
									}
								}
								JOINT lCarpal2
								{
									OFFSET 1.942749 0.556229 -0.337217
									CHANNELS 3 Zrotation Xrotation Yrotation
									JOINT lRing1
									{
										OFFSET 4.762787 -0.121170 2.349089
										CHANNELS 3 Zrotation Xrotation Yrotation
										JOINT lRing2
										{
											OFFSET 3.380348 -1.337097 1.356700
											CHANNELS 3 Zrotation Xrotation Yrotation
											JOINT lRing3
											{
												OFFSET 1.430290 -1.499649 0.914224
												CHANNELS 3 Zrotation Xrotation Yrotation
												End Site
												{
													OFFSET 1.783272 -2.215851 -0.391895
												}
											}
										}
									}
									JOINT lPinky1
									{
										OFFSET 5.232559 -1.313721 0.336493
										CHANNELS 3 Zrotation Xrotation Yrotation
										JOINT lPinky2
										{
											OFFSET 2.217606 -1.389603 0.800693
											CHANNELS 3 Zrotation Xrotation Yrotation
											JOINT lPinky3
											{
												OFFSET 0.886887 -1.462280 0.774199
												CHANNELS 3 Zrotation Xrotation Yrotation
												End Site
												{
													OFFSET -10.295957 -17.050110 17.461308
												}
											}
										}
									}
								}
							}
						}
					}
				}
				JOINT rPectoral
				{
					OFFSET -6.358840 6.360771 6.369920
					CHANNELS 3 Zrotation Xrotation Yrotation
					End Site
					{
						OFFSET 10.295957 -17.050110 17.461308
					}
				}
				JOINT lPectoral
				{
					OFFSET 6.358840 6.360771 6.369920
					CHANNELS 3 Zrotation Xrotation Yrotation
					End Site
					{
						OFFSET 10.295957 -17.050110 17.461308
					}
				}
			}
		}
	}
}
MOTION
Frames:	5
Frame Time:	0.0333333
0.086096 0.012285 140.385010 -0.160515 0.172254 8.950861 0.000000 0.000000 0.000000 -9.152313 -6.645868 -9.543630 1.790766 15.739017 0.319534 6.749803 -23.787815 -8.282218 16.594435 -12.892035 -1.665430 0.000000 0.000000 0.000000 -9.033762 -26.634926 -7.155372 -3.672432 39.473976 -5.704055 6.078375 -14.019675 9.680854 -4.959521 -8.907640 -1.495699 0.000000 0.000000 0.000000 11.415745 -7.748150 -1.347642 0.000000 0.000000 0.000000 -12.463241 4.700962 1.284870 -2.701333 -10.462424 -1.280297 1.524277 11.739601 -2.680418 0.000000 0.000000 0.000000 0.000000 0.000000 0.000000 0.000000 0.000000 0.000000 0.000000 0.000000 0.000000 0.000000 0.000000 0.000000 0.000000 0.000000 0.000000 0.000000 0.000000 0.000000 0.000000 0.000000 0.000000 0.000000 0.000000 0.000000 0.000000 0.000000 0.000000 0.000000 0.000000 0.000000 9.718261 -0.488390 -6.363470 59.311718 37.305088 1.133859 0.878410 -7.573486 -20.262341 1.067224 0.824986 -0.529327 -20.278101 15.997745 -11.245070 -5.516206 -14.190940 9.555255 -16.386185 20.674324 16.306753 0.000000 0.000000 0.000000 -10.344722 -8.555511 -17.047894 -7.447639 -4.503490 -1.783426 -12.628317 -9.976765 -2.347157 -8.649269 -3.305397 -7.175633 -0.596199 3.051810 -3.815208 0.477379 4.595323 -2.175292 0.000000 0.000000 0.000000 -4.053409 -6.935108 0.570711 16.377953 9.700567 -7.263687 1.274629 8.359100 -3.952725 -18.864365 -24.497585 -13.525268 48.465355 21.906361 -10.696066 34.311016 26.749933 -1.842245 -3.576286 -0.026945 3.735116 -61.553024 11.750580 -11.774610 -3.626686 -25.334444 11.550376 5.711090 -2.682639 0.267018 15.319375 21.766415 8.847219 9.897357 -11.660407 7.278462 18.869974 24.455250 -9.597977 0.000000 0.000000 0.000000 11.364023 -8.970807 17.507399 7.742449 -6.475732 0.297233 7.664226 -5.986046 1.312662 9.661836 -3.682464 7.574875 1.679754 2.712321 3.951584 -3.528959 6.262534 1.448606 0.000000 0.000000 0.000000 5.501368 -6.680588 1.170439 -14.897585 10.505441 6.875091 -11.617085 10.916604 0.445432 20.891180 -24.279835 15.016870 -47.080284 22.724037 10.346928 -40.793648 22.744884 -2.181902 0.212758 -0.010976 -0.624787 -0.120890 -0.005951 0.354968 
-0.105586 0.368278 143.321487 -0.340473 -0.556202 11.511284 0.000000 0.000000 0.000000 -8.262868 -3.069812 -9.438692 2.189294 13.519562 -2.124340 6.466183 -23.330021 -8.317606 16.571131 -12.818000 -1.673853 0.000000 0.000000 0.000000 -8.180252 -26.029613 -5.071763 -3.376302 29.071573 -5.073298 5.849058 -8.522393 8.132751 -4.963475 -8.925771 -1.492862 0.000000 0.000000 0.000000 8.297348 -7.184512 -2.580505 0.000000 0.000000 0.000000 -8.370534 5.365437 -0.322263 -2.008946 -11.303175 -1.569865 -0.114287 12.356861 -2.291813 0.000000 0.000000 0.000000 0.000000 0.000000 0.000000 0.000000 0.000000 0.000000 0.000000 0.000000 0.000000 0.000000 0.000000 0.000000 0.000000 0.000000 0.000000 0.000000 0.000000 0.000000 0.000000 0.000000 0.000000 0.000000 0.000000 0.000000 0.000000 0.000000 0.000000 0.000000 0.000000 0.000000 9.305742 -0.652835 -7.411155 61.176521 34.256767 -4.361773 0.577834 -8.168636 -20.126932 0.658543 0.594733 -3.495327 -20.278101 15.997745 -11.245070 -5.516206 -14.190940 9.555255 -16.386185 20.674324 16.306753 0.000000 0.000000 0.000000 -10.344722 -8.555511 -17.047894 -7.447639 -4.503490 -1.783426 -12.628330 -9.976749 -2.347176 -8.649256 -3.305429 -7.175636 -0.596199 3.051811 -3.815211 0.477378 4.595325 -2.175291 0.000000 0.000000 0.000000 -4.053409 -6.935108 0.570711 16.377953 9.700567 -7.263687 1.274629 8.359100 -3.952725 -18.864365 -24.497585 -13.525268 48.465355 21.906361 -10.696066 34.311016 26.749933 -1.842245 -1.804018 0.007024 3.432905 -62.084541 12.378338 -15.914566 -2.643820 -27.034613 11.953621 4.689216 -2.214609 -0.353968 15.319375 21.766415 8.847219 9.897357 -11.660407 7.278462 18.869974 24.455250 -9.597977 0.000000 0.000000 0.000000 11.364023 -8.970807 17.507399 7.742449 -6.475732 0.297233 7.664259 -5.986022 1.312617 9.661723 -3.682680 7.574970 1.679910 2.712539 3.951433 -3.528967 6.262523 1.448621 0.000000 0.000000 0.000000 5.501368 -6.680588 1.170439 -14.897585 10.505441 6.875091 -11.617096 10.916587 0.445448 20.891180 -24.279835 15.016870 -47.080284 22.724037 10.346928 -40.793648 22.744884 -2.181902 0.246066 -0.012905 -0.722629 -0.110554 -0.005413 0.324614 
-0.194198 0.609147 147.208511 0.532538 -0.922256 14.941806 0.000000 0.000000 0.000000 -7.117265 1.531668 -7.713426 0.661131 10.097358 -8.873889 10.343273 -21.060694 -8.917019 16.503590 -12.815613 -1.733805 0.000000 0.000000 0.000000 -8.712892 -25.332190 -1.577088 -3.084464 16.938852 -7.225452 9.963627 0.093405 11.076891 -4.953657 -8.844717 -1.508581 0.000000 0.000000 0.000000 2.145925 -6.967280 -3.773011 0.000000 0.000000 0.000000 -1.908602 6.535776 -2.379740 0.971791 -11.775321 -2.730912 -5.002777 12.203749 -1.147065 0.000000 0.000000 0.000000 0.000000 0.000000 0.000000 0.000000 0.000000 0.000000 0.000000 0.000000 0.000000 0.000000 0.000000 0.000000 0.000000 0.000000 0.000000 0.000000 0.000000 0.000000 0.000000 0.000000 0.000000 0.000000 0.000000 0.000000 0.000000 0.000000 0.000000 0.000000 0.000000 0.000000 8.625827 -0.836171 -8.696873 61.387508 27.089767 -10.834876 1.600539 -6.299927 -19.429983 2.503481 1.337450 -6.566863 -20.278101 15.997745 -11.245070 -5.516206 -14.190940 9.555255 -16.386185 20.674324 16.306753 0.000000 0.000000 0.000000 -10.344722 -8.555511 -17.047894 -7.447639 -4.503490 -1.783426 -12.628345 -9.976735 -2.347195 -8.649243 -3.305458 -7.175640 -0.596200 3.051811 -3.815213 0.477377 4.595327 -2.175289 0.000000 0.000000 0.000000 -4.053409 -6.935108 0.570711 16.377953 9.700567 -7.263687 1.274629 8.359100 -3.952725 -18.864365 -24.497585 -13.525268 48.465355 21.906361 -10.696066 34.311016 26.749933 -1.842245 0.766071 -0.005106 3.569438 -62.296993 13.956235 -21.427019 -2.116058 -28.407351 12.719014 3.587810 -1.712072 -0.583564 15.319375 21.766415 8.847219 9.897357 -11.660407 7.278462 18.869974 24.455250 -9.597977 0.000000 0.000000 0.000000 11.364023 -8.970807 17.507399 7.742449 -6.475732 0.297233 7.664292 -5.985999 1.312571 9.661615 -3.682888 7.575063 1.680060 2.712747 3.951289 -3.528976 6.262513 1.448635 0.000000 0.000000 0.000000 5.501368 -6.680588 1.170439 -14.897585 10.505441 6.875091 -11.617106 10.916571 0.445462 20.891180 -24.279835 15.016870 -47.080284 22.724037 10.346928 -40.793648 22.744884 -2.181902 0.286691 -0.015335 -0.841976 -0.115211 -0.005655 0.338290 
-0.220838 0.299633 150.241806 1.913856 -0.499651 17.244627 0.000000 0.000000 0.000000 -7.112861 3.450352 -6.066857 -0.248127 9.784128 -12.672465 10.858028 -21.323692 -8.918991 16.547598 -12.893920 -1.707764 0.000000 0.000000 0.000000 -9.914058 -26.458382 1.888805 -3.117911 13.191487 -10.954646 13.363397 -0.618019 15.979120 -4.948264 -8.768374 -1.536664 0.000000 0.000000 0.000000 -3.807149 -7.677701 -4.293561 0.000000 0.000000 0.000000 3.449411 8.195977 -3.816582 2.065714 -12.476105 -3.402754 -7.281549 12.174687 -0.915859 0.000000 0.000000 0.000000 0.000000 0.000000 0.000000 0.000000 0.000000 0.000000 0.000000 0.000000 0.000000 0.000000 0.000000 0.000000 0.000000 0.000000 0.000000 0.000000 0.000000 0.000000 0.000000 0.000000 0.000000 0.000000 0.000000 0.000000 0.000000 0.000000 0.000000 0.000000 0.000000 0.000000 8.088045 -0.953265 -9.605167 60.317032 21.264093 -15.446253 2.449695 -4.745732 -17.857336 2.167882 1.000666 -9.783972 -20.278101 15.997745 -11.245070 -5.516206 -14.190940 9.555255 -16.386185 20.674324 16.306753 0.000000 0.000000 0.000000 -10.344722 -8.555511 -17.047894 -7.447639 -4.503490 -1.783426 -12.628357 -9.976720 -2.347211 -8.649226 -3.305485 -7.175642 -0.596200 3.051812 -3.815216 0.477375 4.595330 -2.175287 0.000000 0.000000 0.000000 -4.053409 -6.935108 0.570711 16.377953 9.700567 -7.263687 1.274629 8.359100 -3.952725 -18.864365 -24.497585 -13.525268 48.465355 21.906361 -10.696066 34.311016 26.749933 -1.842245 2.461857 -0.034708 4.055803 -61.367886 15.577778 -26.063776 -1.566051 -28.549074 14.481682 2.304152 -1.102862 -0.893436 15.319375 21.766415 8.847219 9.897357 -11.660407 7.278462 18.869974 24.455250 -9.597977 0.000000 0.000000 0.000000 11.364023 -8.970807 17.507399 7.742449 -6.475732 0.297233 7.664322 -5.985975 1.312520 9.661510 -3.683090 7.575157 1.680207 2.712952 3.951147 -3.528986 6.262504 1.448646 0.000000 0.000000 0.000000 5.501368 -6.680588 1.170439 -14.897585 10.505441 6.875091 -11.617116 10.916555 0.445475 20.891180 -24.279835 15.016870 -47.080284 22.724037 10.346928 -40.793648 22.744884 -2.181902 0.315336 -0.017099 -0.926138 -0.131749 -0.006522 0.386857 
-0.419399 -0.008798 153.416367 2.511687 -0.067873 19.591551 0.000000 0.000000 0.000000 -6.353408 4.752614 -6.112095 -1.052017 10.380397 -14.865524 11.193200 -21.922655 -8.849785 17.113192 -13.412616 -1.727646 0.000000 0.000000 0.000000 -10.219653 -27.232285 4.074779 -3.055294 10.819314 -10.823692 12.765725 -1.448390 15.852694 -4.944721 -8.745956 -1.541268 0.000000 0.000000 0.000000 -8.191108 -8.137056 -5.284006 0.000000 0.000000 0.000000 7.159666 8.802023 -5.265386 1.917702 -10.988604 -3.605040 -6.302418 9.803356 -1.700320 0.000000 0.000000 0.000000 0.000000 0.000000 0.000000 0.000000 0.000000 0.000000 0.000000 0.000000 0.000000 0.000000 0.000000 0.000000 0.000000 0.000000 0.000000 0.000000 0.000000 0.000000 0.000000 0.000000 0.000000 0.000000 0.000000 0.000000 0.000000 0.000000 0.000000 0.000000 0.000000 0.000000 8.275876 -1.175628 -10.944071 58.837490 18.110941 -19.267555 2.855888 -4.710935 -17.347654 1.853165 0.908984 -9.301551 -20.278101 15.997745 -11.245070 -5.516206 -14.190940 9.555255 -16.386185 20.674324 16.306753 0.000000 0.000000 0.000000 -10.344722 -8.555511 -17.047894 -7.447639 -4.503490 -1.783426 -12.628370 -9.976704 -2.347227 -8.649210 -3.305511 -7.175646 -0.596201 3.051813 -3.815218 0.477375 4.595334 -2.175286 0.000000 0.000000 0.000000 -4.053409 -6.935108 0.570711 16.377953 9.700567 -7.263687 1.274629 8.359100 -3.952725 -18.864365 -24.497585 -13.525268 48.465355 21.906361 -10.696066 34.311016 26.749933 -1.842245 4.302835 -0.062095 4.832789 -59.689522 17.470490 -29.422731 -0.991851 -28.844580 16.427525 0.871015 -0.378312 -1.969990 15.319375 21.766415 8.847219 9.897357 -11.660407 7.278462 18.869974 24.455250 -9.597977 0.000000 0.000000 0.000000 11.364023 -8.970807 17.507399 7.742449 -6.475732 0.297233 7.664348 -5.985948 1.312464 9.661405 -3.683297 7.575256 1.680356 2.713160 3.951003 -3.528997 6.262494 1.448658 0.000000 0.000000 0.000000 5.501368 -6.680588 1.170439 -14.897585 10.505441 6.875091 -11.617126 10.916538 0.445486 20.891180 -24.279835 15.016870 -47.080284 22.724037 10.346928 -40.793648 22.744884 -2.181902 0.359017 -0.019871 -1.054488 -0.158317 -0.007946 0.464886 
